<?xml version="1.0" encoding="utf-8"?>
<!-- Generator: Adobe Illustrator 16.0.4, SVG Export Plug-In . SVG Version: 6.00 Build 0)  -->
<!DOCTYPE svg PUBLIC "-//W3C//DTD SVG 1.1//EN" "http://www.w3.org/Graphics/SVG/1.1/DTD/svg11.dtd">
<svg version="1.1" xmlns="http://www.w3.org/2000/svg" xmlns:xlink="http://www.w3.org/1999/xlink" x="0px" y="0px" width="48px"
	 height="48px" viewBox="0 0 48 48" enable-background="new 0 0 48 48" xml:space="preserve">
<g id="Layer_1">
	<rect x="5.501" y="11.5" fill="#FFFFFF" width="36.999" height="25"/>
	
		<rect x="5.501" y="11.5" fill="none" stroke="#303030" stroke-linecap="round" stroke-linejoin="round" stroke-miterlimit="10" width="36.999" height="25"/>
	<path fill="#FFFFFF" d="M42.486,36.497H5.515L19.263,23.98l3.627,3.306c0.658,0.602,1.665,0.602,2.322,0l3.576-3.254L42.486,36.497
		z"/>
	<path fill="none" stroke="#303030" stroke-linecap="round" stroke-linejoin="round" stroke-miterlimit="10" d="M42.486,36.497
		H5.515L19.263,23.98l3.627,3.306c0.658,0.602,1.665,0.602,2.322,0l3.576-3.254L42.486,36.497z"/>
	<path fill="#FFFFFF" d="M42.461,11.518L28.723,24.032l-3.577,3.254c-0.656,0.602-1.664,0.602-2.321,0l-3.628-3.305L5.5,11.518
		H42.461z"/>
	<path fill="none" stroke="#303030" stroke-linecap="round" stroke-linejoin="round" stroke-miterlimit="10" d="M42.461,11.518
		L28.723,24.032l-3.577,3.254c-0.656,0.602-1.664,0.602-2.321,0l-3.628-3.305L5.5,11.518H42.461z"/>
	<rect fill="none" width="48" height="48"/>
</g>
<g id="Layer_2" display="none">
</g>
</svg>
