<?xml version="1.0" encoding="utf-8"?>
<!-- Generator: Adobe Illustrator 26.2.1, SVG Export Plug-In . SVG Version: 6.00 Build 0)  -->
<svg version="1.1" xmlns="http://www.w3.org/2000/svg" xmlns:xlink="http://www.w3.org/1999/xlink" x="0px" y="0px"
	 viewBox="0 0 48 48" style="enable-background:new 0 0 48 48;" xml:space="preserve">
<style type="text/css">
	.st0{fill:#B4378C;}
	.st1{fill:#783C64;}
	.st2{fill:#463282;}
	.st3{fill:#325AA0;}
	.st4{fill:#3CB9B9;}
	.st5{fill:#468246;}
	.st6{fill:#6EB43C;}
	.st7{fill:#E6BE1E;}
	.st8{fill:#C8961E;}
	.st9{fill:#BE8232;}
	.st10{fill:#BE5A32;}
	.st11{fill:#BE3232;}
	.st12{fill:#B4A0C8;}
	.st13{fill:#B4C8DC;}
	.st14{fill:#AADCDC;}
	.st15{fill:#DC7878;}
	.st16{fill:#64503C;}
	.st17{fill:#DEDEDE;}
	.st18{fill:#AAAAAA;}
	.st19{fill:#6F6F6F;}
	.st20{fill:#A08C78;}
	.st21{fill:#FFFFFF;}
	.st22{fill:#303030;}
	.st23{fill:#96050A;}
	.st24{fill:none;stroke:#000000;stroke-miterlimit:10;}
	.st25{fill:#FFFFFF;stroke:#000000;stroke-miterlimit:10;}
	.st26{fill-rule:evenodd;clip-rule:evenodd;fill:#AAAAAA;}
	.st27{fill-rule:evenodd;clip-rule:evenodd;fill:#303030;}
</style>
<g id="colors_00000147203815610061264580000002726308461029419942_">
	<rect y="-21.5" class="st0" width="3" height="5.2"/>
	<rect x="3" y="-21.5" class="st1" width="3" height="5.2"/>
	<rect x="6" y="-21.5" class="st2" width="3" height="5.2"/>
	<rect x="9" y="-21.5" class="st3" width="3" height="5.2"/>
	<rect x="12" y="-21.5" class="st4" width="3" height="5.2"/>
	<rect x="15" y="-21.5" class="st5" width="3" height="5.2"/>
	<rect x="18" y="-21.5" class="st6" width="3" height="5.2"/>
	<rect x="21" y="-21.5" class="st7" width="3" height="5.2"/>
	<rect x="24" y="-21.5" class="st8" width="3" height="5.2"/>
	<rect x="27" y="-21.5" class="st9" width="3" height="5.2"/>
	<rect x="30" y="-21.5" class="st10" width="3" height="5.2"/>
	<rect x="33" y="-21.5" class="st11" width="3" height="5.2"/>
	<rect y="-13.1" class="st12" width="3" height="5.2"/>
	<rect x="3" y="-13.1" class="st13" width="3" height="5.2"/>
	<rect x="6" y="-13.1" class="st14" width="3" height="5.2"/>
	<rect x="9" y="-13.1" class="st15" width="3" height="5.2"/>
	<rect x="15" y="-13.1" class="st16" width="3" height="5.2"/>
	<rect x="24" y="-13.1" class="st17" width="3" height="5.2"/>
	<rect x="27" y="-13.1" class="st18" width="3" height="5.2"/>
	<rect x="30" y="-13.1" class="st19" width="3" height="5.2"/>
	<rect x="36" y="-13.1" width="3" height="5.2"/>
	<rect x="12" y="-13.1" class="st20" width="3" height="5.2"/>
	<rect x="21" y="-13.1" class="st21" width="3" height="5.2"/>
	<rect x="33" y="-13.1" class="st22" width="3" height="5.2"/>
	<rect x="36" y="-21.5" class="st23" width="3" height="5.2"/>
</g>
<g id="artwork">
	<g>
		<polygon points="27,46 32,44 27,44 		"/>
	</g>
	<g>
		<polygon points="27,4 32,4 27,2 		"/>
	</g>
	<g>
		<g>
			<rect x="21" y="4.5" class="st21" width="21.5" height="39"/>
			<path d="M42,5v38H21.5V5H42 M43,4H20.5v40H43V4L43,4z"/>
		</g>
		<line class="st24" x1="32" y1="27" x2="36" y2="27"/>
		<line class="st24" x1="21" y1="18" x2="29" y2="18"/>
		<line class="st24" x1="21.5" y1="21" x2="29" y2="21"/>
		<line class="st24" x1="21" y1="27" x2="31" y2="27"/>
		<line class="st24" x1="21" y1="30" x2="36" y2="30"/>
		<line class="st24" x1="21" y1="24" x2="36" y2="24"/>
		<path class="st25" d="M29,40c0,0,5,0,5-3c0-1-2-1-2,1c0,1,1,2,2,2s2-2,4-2c1,0,2,1,2,1"/>
		<g>
			<circle class="st26" cx="36" cy="10.8" r="1.9"/>
			<path class="st27" d="M39,16h-6v-1.1c0-1,0.8-1.9,1.9-1.9h2.2c1,0,1.9,0.8,1.9,1.9V16z"/>
		</g>
	</g>
	<g>
		<rect x="5.5" y="2.5" class="st7" width="21" height="43"/>
		<g>
			<path d="M26,3v42H6V3H26 M27,2H5v44h22V2L27,2z"/>
		</g>
	</g>
	<line class="st24" x1="14" y1="21" x2="14" y2="38"/>
	<line class="st24" x1="14" y1="12" x2="14" y2="19"/>
	<line class="st24" x1="17" y1="26" x2="17" y2="35"/>
	<line class="st24" x1="17" y1="15" x2="17" y2="24"/>
</g>
</svg>
